<svg width="45" height="26" viewBox="0 0 45 26" fill="none" xmlns="http://www.w3.org/2000/svg">
<path d="M0.882812 0.4711H1.37488V13.5364H0.882812V0.4711ZM1.86694 0.4711H2.359V13.5364H1.86694V0.4711ZM4.8214 0.4711H5.31347V13.5364H4.8214V0.4711ZM14.3994 0.4711H14.8915V13.5364H14.3994V0.4711ZM17.6015 0.4711H18.0935V13.5364H17.6015V0.4711ZM20.7064 0.4711H21.1984V13.5364H20.7064V0.4711ZM21.5066 0.4711H21.9987V13.5364H21.5066V0.4711ZM22.3079 0.4711H22.8V13.5364H22.3079V0.4711ZM23.2085 0.4711H23.7005V13.5364H23.2085V0.4711ZM24.109 0.4711H24.6011V13.5364H24.109V0.4711ZM26.6122 0.4711H27.1042V13.5364H26.6122V0.4711ZM32.8188 0.4711H33.3109V13.5364H32.8188V0.4711ZM39.293 0.4711H39.785V13.5364H39.293V0.4711ZM41.0638 0.4711H41.5558V13.5364H41.0638V0.4711ZM42.3435 0.4711H42.8356V13.5364H42.3435V0.4711ZM43.1313 0.4711H43.6233V13.5364H43.1313V0.4711ZM8.07048 0.4711H8.56254V13.5364H8.07048V0.4711ZM3.14672 0.4711H4.03264V13.5364H3.14672V0.4711ZM8.99401 0.4711H9.87994V13.5364H8.99401V0.4711ZM13.0998 0.4711H13.9857V13.5364H13.0998V0.4711ZM15.2017 0.4711H16.0877V13.5364H15.2017V0.4711ZM18.5051 0.4711H19.3911V13.5364H18.5051V0.4711ZM27.9233 0.4711H29.3013V13.5364H27.9233V0.4711ZM29.7233 0.4711H30.8067V13.5364H29.7233V0.4711ZM31.6226 0.4711H32.5086V13.5364H31.6226V0.4711ZM34.1341 0.4711H35.6114V13.5364H34.1341V0.4711ZM37.027 0.4711H38.5042V13.5364H37.027V0.4711ZM5.80553 0.4711H7.57737V13.5364H5.80553V0.4711ZM10.3981 0.4711H11.7761V13.5364H10.3981V0.4711Z" fill="#010101"/>
<path d="M1.51953 25.1369V17.6588H4.32565C4.79454 17.6407 5.26224 17.7178 5.7005 17.8855C6.03647 18.0291 6.31969 18.2733 6.5112 18.5844C6.70095 18.8789 6.80279 19.2214 6.80477 19.5717C6.80479 19.8911 6.71462 20.204 6.54463 20.4743C6.35324 20.7723 6.08066 21.0094 5.759 21.1576C6.17188 21.2636 6.53878 21.5017 6.80372 21.8356C7.04892 22.1615 7.17734 22.5604 7.16833 22.9681C7.17115 23.3064 7.09533 23.6408 6.94685 23.9449C6.82124 24.2176 6.63252 24.4564 6.39628 24.6417C6.15038 24.8179 5.87199 24.9436 5.57722 25.0116C5.18196 25.1023 4.77709 25.1444 4.37161 25.1369H1.51953ZM2.50992 20.8013H4.12715C4.44301 20.8137 4.75913 20.7846 5.0674 20.7146C5.29298 20.6574 5.49299 20.5265 5.63572 20.3427C5.7686 20.1516 5.8357 19.9224 5.82691 19.6898C5.83152 19.4588 5.7695 19.2314 5.64826 19.0347C5.53254 18.848 5.35279 18.7099 5.14262 18.6461C4.76979 18.5603 4.38712 18.5252 4.00492 18.5416H2.50992V20.8013ZM2.50992 24.2552H4.37161C4.59681 24.2611 4.82213 24.2492 5.04546 24.2197C5.24747 24.1869 5.44141 24.116 5.61692 24.0107C5.77726 23.9071 5.90737 23.7629 5.99406 23.5928C6.09525 23.3996 6.14626 23.1841 6.14241 22.966C6.14941 22.7058 6.07449 22.45 5.92825 22.2347C5.78399 22.0279 5.57475 21.8753 5.3338 21.8011C4.97753 21.7048 4.60881 21.6625 4.23998 21.6758H2.50992V24.2552ZM8.61422 21.495C8.55165 20.4295 8.91078 19.3821 9.61401 18.5792C9.94543 18.2312 10.3469 17.9574 10.7918 17.7759C11.2368 17.5943 11.7152 17.5092 12.1955 17.5261C12.8514 17.5171 13.4972 17.6884 14.0624 18.0213C14.6119 18.3461 15.0528 18.8263 15.3297 19.4014C15.6283 20.0276 15.7774 20.7146 15.7653 21.4083C15.7775 22.1136 15.6203 22.8115 15.3067 23.4434C15.0224 24.0186 14.5684 24.4927 14.006 24.8016C13.4501 25.108 12.825 25.267 12.1903 25.2633C11.5261 25.2743 10.8722 25.098 10.3035 24.7545C9.75635 24.4228 9.31806 23.9384 9.04255 23.3609C8.75874 22.78 8.6122 22.1416 8.61422 21.495ZM9.63491 21.5107C9.59238 22.2888 9.8547 23.0529 10.3662 23.6409C10.5969 23.8935 10.8791 24.0938 11.1938 24.228C11.5084 24.3623 11.8483 24.4275 12.1903 24.4192C12.5344 24.4279 12.8763 24.3621 13.1926 24.2264C13.5089 24.0906 13.7921 23.888 14.0227 23.6325C14.5388 23.0086 14.797 22.2111 14.7446 21.4031C14.7583 20.8561 14.6546 20.3125 14.4406 19.8089C14.2519 19.3746 13.9376 19.0067 13.538 18.7526C13.1387 18.5017 12.6754 18.3715 12.2039 18.3776C11.8697 18.3725 11.5378 18.4337 11.2274 18.5576C10.9171 18.6815 10.6343 18.8657 10.3955 19.0995C10.1129 19.4293 9.89987 19.8128 9.76918 20.2269C9.63848 20.6411 9.59281 21.0774 9.63491 21.5097V21.5107ZM17.3878 25.1369V17.6588H18.3771V24.2541H22.0598V25.1369H17.3878ZM23.6456 25.1369V17.6588H29.0531V18.5416H24.635V20.8316H28.7721V21.7092H24.635V24.2541H29.2265V25.1369H23.6456ZM32.883 25.1369V18.5416H30.4185V17.6588H36.3463V18.5416H33.8724V25.1369H32.883ZM37.2583 21.495C37.1963 20.4292 37.5562 19.3818 38.2602 18.5792C38.5916 18.2312 38.9931 17.9574 39.438 17.7759C39.883 17.5943 40.3614 17.5092 40.8417 17.5261C41.4976 17.5171 42.1434 17.6884 42.7086 18.0213C43.2581 18.3461 43.699 18.8263 43.9759 19.4014C44.2745 20.0276 44.4236 20.7146 44.4115 21.4083C44.4237 22.1136 44.2664 22.8115 43.9529 23.4434C43.6676 24.0196 43.2121 24.4941 42.648 24.8026C42.0922 25.1091 41.4671 25.2681 40.8323 25.2644C40.1676 25.2752 39.5133 25.0985 38.9445 24.7545C38.3985 24.4224 37.9613 23.938 37.6867 23.3609C37.4029 22.78 37.2563 22.1416 37.2583 21.495ZM38.279 21.5107C38.2365 22.2888 38.4988 23.0529 39.0103 23.6409C39.241 23.8935 39.5232 24.0938 39.8379 24.228C40.1526 24.3623 40.4924 24.4275 40.8344 24.4192C41.1795 24.429 41.5225 24.3638 41.84 24.2282C42.1574 24.0925 42.4417 23.8897 42.6731 23.6336C43.1891 23.0096 43.4474 22.2121 43.395 21.4041C43.4057 20.8564 43.2988 20.3128 43.0816 19.8099C42.8929 19.3756 42.5785 19.0077 42.179 18.7537C41.7797 18.5028 41.3164 18.3725 40.8448 18.3786C40.5107 18.3736 40.1788 18.4348 39.8684 18.5587C39.558 18.6826 39.2753 18.8667 39.0364 19.1005C38.7544 19.4304 38.5418 19.8138 38.4115 20.2277C38.2811 20.6417 38.2357 21.0777 38.278 21.5097L38.279 21.5107Z" fill="black"/>
</svg>
