<svg width="512" height="512" viewBox="0 0 512 512" fill="none" xmlns="http://www.w3.org/2000/svg">
<g clip-path="url(#clip0_509_33)">
<path d="M362.667 213.333C280.341 213.333 213.333 280.32 213.333 362.667C213.333 445.013 280.341 512 362.667 512C444.992 512 512 445.013 512 362.667C512 280.32 444.992 213.333 362.667 213.333ZM362.667 469.333C303.851 469.333 256 421.483 256 362.667C256 303.851 303.851 256 362.667 256C421.483 256 469.333 303.851 469.333 362.667C469.333 421.483 421.483 469.333 362.667 469.333ZM384 353.835L420.416 390.251L390.251 420.416L341.333 371.499V298.667H384V353.835ZM512 106.667V242.112C499.861 227.093 485.397 214.123 469.333 203.328V106.667C469.333 94.912 459.776 85.3333 448 85.3333H64C52.2453 85.3333 42.6667 94.912 42.6667 106.667V170.667H362.667C316.971 170.667 275.072 186.688 242.112 213.333H42.6667V469.333H203.051C213.845 485.461 227.051 499.819 242.112 512H0V106.667C0 71.3813 28.7147 42.6667 64 42.6667H128V0H170.667V42.6667H341.333V0H384V42.6667H448C483.285 42.6667 512 71.3813 512 106.667Z" fill="#00BD4C"/>
</g>
<defs>
<clipPath id="clip0_509_33">
<rect width="512" height="512" fill="white"/>
</clipPath>
</defs>
</svg>
