<svg width="33" height="33" viewBox="0 0 33 33" fill="none" xmlns="http://www.w3.org/2000/svg">
<g clip-path="url(#clip0_443_27)">
<mask id="mask0_443_27" style="mask-type:luminance" maskUnits="userSpaceOnUse" x="0" y="0" width="33" height="33">
<path d="M33 0H0V33H33V0Z" fill="white"/>
</mask>
<g mask="url(#mask0_443_27)">
<path d="M28.875 8.25H6.875C5.69387 8.25 4.576 7.7385 3.80188 6.87638C4.55813 6.03213 5.65675 5.5 6.875 5.5H31.625C32.3854 5.5 33 4.884 33 4.125C33 3.366 32.3854 2.75 31.625 2.75H6.875C3.07863 2.75 0 5.82863 0 9.625V23.375C0 27.1714 3.07863 30.25 6.875 30.25H28.875C31.1534 30.25 33 28.4034 33 26.125V12.375C33 10.0966 31.1534 8.25 28.875 8.25ZM30.25 26.125C30.25 26.8826 29.634 27.5 28.875 27.5H6.875C4.60075 27.5 2.75 25.6493 2.75 23.375V9.62225C3.92425 10.5009 5.368 11 6.875 11H28.875C29.634 11 30.25 11.6174 30.25 12.375V26.125ZM27.5 19.25C27.5 20.009 26.884 20.625 26.125 20.625C25.366 20.625 24.75 20.009 24.75 19.25C24.75 18.491 25.366 17.875 26.125 17.875C26.884 17.875 27.5 18.491 27.5 19.25Z" fill="#727272"/>
</g>
</g>
<defs>
<clipPath id="clip0_443_27">
<rect width="33" height="33" fill="white"/>
</clipPath>
</defs>
</svg>
