<svg width="301" height="65" viewBox="0 0 301 65" fill="none" xmlns="http://www.w3.org/2000/svg">
<path d="M300.912 64.9216H297.448V0.040062H300.912V64.9216ZM293.984 64.9216H290.519V0.040062H293.984V64.9216ZM273.184 64.9216H269.719V0.040062H273.184V64.9216ZM205.753 64.9216H202.288V0.040062H205.753V64.9216ZM183.209 64.9216H179.745V0.040062H183.209V64.9216ZM161.35 64.9216H157.886V0.040062H161.35V64.9216ZM155.716 64.9216H152.252V0.040062H155.716V64.9216ZM150.075 64.9216H146.61V0.040062H150.075V64.9216ZM143.734 64.9216H140.27V0.040062H143.734V64.9216ZM137.394 64.9216H133.93V0.040062H137.394V64.9216ZM119.772 64.9216H116.308V0.040062H119.772V64.9216ZM76.0759 64.9216H72.6117V0.040062H76.0759V64.9216ZM30.4966 64.9216H27.0323V0.040062H30.4966V64.9216ZM18.0296 64.9216H14.5654V0.040062H18.0296V64.9216ZM9.01981 64.9216H5.55557V0.040062H9.01981V64.9216ZM3.47418 64.9216H0.00997925V0.040062H3.47418V64.9216ZM250.309 64.9216H246.845V0.040062H250.309V64.9216ZM284.974 64.9216H278.737V0.040062H284.974V64.9216ZM243.808 64.9216L237.57 64.9216V0.040062L243.808 0.040062V64.9216ZM214.902 64.9216H208.665V0.040062H214.902V64.9216ZM200.104 64.9216H193.867V0.040062H200.104V64.9216ZM176.847 64.9216H170.61V0.040062H176.847V64.9216ZM110.541 64.9216H100.84V0.040062H110.541V64.9216ZM97.8694 64.9216H90.2412V0.040062H97.8694V64.9216ZM84.4975 64.9216H78.2605V0.040062H84.4975V64.9216ZM66.8158 64.9216H56.416V0.040062H66.8158V64.9216ZM46.4491 64.9216H36.0493V0.040062H46.4491V64.9216ZM266.255 64.9216H253.781V0.040062H266.255V64.9216ZM233.922 64.9216H224.221V0.040062H233.922V64.9216Z" fill="#010101"/>
</svg>
