<svg width="16" height="16" viewBox="0 0 16 16" fill="none" xmlns="http://www.w3.org/2000/svg">
<path d="M16 8C16 9.58225 15.5308 11.129 14.6518 12.4446C13.7727 13.7602 12.5233 14.7855 11.0615 15.391C9.59966 15.9965 7.99113 16.155 6.43928 15.8463C4.88743 15.5376 3.46197 14.7757 2.34315 13.6569C1.22433 12.538 0.462403 11.1126 0.153721 9.56072C-0.15496 8.00887 0.00346631 6.40034 0.608967 4.93853C1.21447 3.47672 2.23985 2.22729 3.55544 1.34824C4.87103 0.469192 6.41775 0 8 0C10.121 0.00229405 12.1545 0.845885 13.6543 2.34568C15.1541 3.84547 15.9977 5.87897 16 8ZM8.66667 3.33333H7.33334V10H8.66667V3.33333ZM8.66667 11.3333H7.33334V12.6667H8.66667V11.3333Z" fill="#056DE0"/>
</svg>
