<svg width="25" height="25" viewBox="0 0 25 25" fill="none" xmlns="http://www.w3.org/2000/svg">
<g clip-path="url(#clip0_55_48)">
<path d="M2.08317 4.16667H7.2915V2.08333C7.2915 1.5308 7.511 1.0009 7.9017 0.610194C8.2924 0.219493 8.8223 0 9.37484 0L15.6248 0C16.1774 0 16.7073 0.219493 17.098 0.610194C17.4887 1.0009 17.7082 1.5308 17.7082 2.08333V4.16667H22.9165V6.25H20.8332V21.875C20.8332 22.7038 20.5039 23.4987 19.9179 24.0847C19.3318 24.6708 18.537 25 17.7082 25H7.2915C6.4627 25 5.66785 24.6708 5.08179 24.0847C4.49574 23.4987 4.1665 22.7038 4.1665 21.875V6.25H2.08317V4.16667ZM15.6248 2.08333H9.37484V4.16667H15.6248V2.08333ZM6.24984 21.875C6.24984 22.1513 6.35958 22.4162 6.55493 22.6116C6.75028 22.8069 7.01524 22.9167 7.2915 22.9167H17.7082C17.9844 22.9167 18.2494 22.8069 18.4447 22.6116C18.6401 22.4162 18.7498 22.1513 18.7498 21.875V6.25H6.24984V21.875Z" fill="#727272"/>
<path d="M13.5417 10.4167H15.625V18.75H13.5417V10.4167Z" fill="#727272"/>
<path d="M9.37467 10.4167H11.458V18.75H9.37467V10.4167Z" fill="#727272"/>
</g>
<defs>
<clipPath id="clip0_55_48">
<rect width="25" height="25" fill="white" transform="matrix(-1 0 0 1 25 0)"/>
</clipPath>
</defs>
</svg>
