<svg width="58" height="39" viewBox="0 0 58 39" fill="none" xmlns="http://www.w3.org/2000/svg">
<path d="M22.7988 9.27972H35.2056V29.7182H22.7988V9.27972Z" fill="#FF5F00"/>
<path d="M24.0775 19.5008C24.0759 17.5327 24.5182 15.5901 25.371 13.8199C26.2237 12.0498 27.4644 10.4984 28.9993 9.28333C27.0983 7.77643 24.8153 6.83937 22.4112 6.57926C20.0071 6.31915 17.579 6.74648 15.4043 7.81241C13.2296 8.87834 11.3961 10.5399 10.1134 12.6071C8.83063 14.6743 8.15039 17.0638 8.15039 19.5026C8.15039 21.9413 8.83063 24.3308 10.1134 26.398C11.3961 28.4652 13.2296 30.1268 15.4043 31.1927C17.579 32.2586 20.0071 32.686 22.4112 32.4258C24.8153 32.1657 27.0983 31.2287 28.9993 29.7218C27.464 28.5063 26.2229 26.9544 25.3702 25.1835C24.5174 23.4127 24.0754 21.4694 24.0775 19.5007V19.5008Z" fill="#EB001B"/>
<path d="M48.618 27.5555V27.1368H48.797V27.0501H48.3711V27.1368H48.5393V27.5556L48.618 27.5555ZM49.4449 27.5555V27.0502H49.3161L49.1657 27.4112L49.0154 27.0501H48.8865V27.5555H48.9796V27.1729L49.1192 27.5015H49.2158L49.3555 27.1729V27.5555H49.4449Z" fill="#F79E1B"/>
<path d="M49.8499 19.5008C49.8498 21.9397 49.1694 24.3294 47.8865 26.3967C46.6035 28.464 44.7697 30.1255 42.5948 31.1912C40.4198 32.257 37.9914 32.6841 35.5872 32.4236C33.183 32.1631 30.8999 31.2256 28.999 29.7182C30.5333 28.502 31.7737 26.9502 32.6267 25.18C33.4796 23.4097 33.9228 21.4672 33.9228 19.4989C33.9228 17.5307 33.4796 15.5882 32.6267 13.8179C31.7737 12.0477 30.5333 10.4959 28.999 9.27972C30.8999 7.77233 33.183 6.83481 35.5872 6.57432C37.9915 6.31383 40.4198 6.74089 42.5948 7.80667C44.7698 8.87246 46.6035 10.534 47.8865 12.6013C49.1695 14.6686 49.8499 17.0583 49.8499 19.4972V19.5008Z" fill="#F79E1B"/>
</svg>
