<svg width="186" height="28" viewBox="0 0 186 28" fill="none" xmlns="http://www.w3.org/2000/svg">
<path d="M121.289 24.0406C119.624 26.0938 117.986 27.2045 115.518 27.2045C112.354 27.2045 110.021 25.4261 110.021 22.1249C110.021 16.2127 116.627 15.7973 120.901 15.7973H122.566C122.705 15.2427 122.705 14.8273 122.705 14.2711C122.705 12.4928 120.79 11.9399 119.124 11.9399C117.071 11.9399 115.128 12.4944 113.353 13.327L114.048 9.60866C115.964 8.91349 118.045 8.49799 120.098 8.49799C123.679 8.49799 126.98 9.88513 126.98 13.9947C126.98 16.3259 125.202 23.3471 124.788 26.65H120.93L121.289 24.0406ZM116.74 23.7626C120.183 23.7626 121.291 21.4314 121.957 18.5456H120.292C118.1 18.5456 114.38 18.9627 114.38 21.9891C114.407 23.2097 115.518 23.7674 116.74 23.7674V23.7626ZM1.5637 9.02826H5.02336L5.85595 5.30995L10.824 3.64478L9.57428 9.00078H13.6806L12.9854 12.4443H8.87911L7.21395 20.159C7.03415 20.7343 6.94044 21.333 6.93588 21.9357C6.93588 23.0464 7.63105 23.7141 8.71421 23.7141C9.5468 23.7141 10.3794 23.5751 10.9064 23.297L10.0738 26.8779C9.24125 27.0169 8.40866 27.295 7.60356 27.295C4.43975 27.295 2.24755 26.0453 2.24755 22.6067C2.24755 21.2196 2.52561 19.8583 2.80206 18.4712L4.18916 12.4216H0.86853L1.5637 9.02826ZM15.6077 9.02826H20.296L16.437 26.789H11.7487L15.6061 9.02668M17.2437 1.33942H21.9321L20.9621 5.75289H16.2996L17.2437 1.33942ZM34.1702 13.0231C33.2002 12.4685 32.1171 12.053 30.7268 12.053C27.0084 12.053 24.9552 15.4965 24.9552 18.7978C24.9552 21.129 25.7878 23.4861 28.9516 23.4861C30.0623 23.4861 31.561 23.2081 32.67 22.5161L32.1155 26.2345C30.7284 26.9296 29.2297 27.0671 27.702 27.0671C23.151 27.0671 20.1246 24.0439 20.1246 19.3523C20.1246 13.1637 24.2601 8.47214 30.5877 8.47214C32.366 8.47214 34.0312 8.75019 35.2761 9.16729L34.1702 13.0231ZM40.7792 15.4966L47.2458 9.02989H53.2954L44.7756 17.1617L50.1316 26.7922H44.9146L40.3637 17.3024H40.2247L38.3089 26.7922H33.758L39.2805 0.925537H43.804L40.7792 15.4966ZM69.8081 9.02989H73.1109L73.9435 5.31157L78.9115 3.64641L77.8008 8.86338H81.9363L81.2411 12.3069H77.1057L75.4405 20.0216C75.3015 20.5761 75.1625 21.1323 75.1625 21.8C75.1625 22.9106 75.8576 23.5783 76.9408 23.5783C77.7734 23.5783 78.6059 23.4392 79.133 23.1612L78.3004 26.7421C77.4678 26.8811 76.6352 27.1592 75.8301 27.1592C72.6663 27.1592 70.4741 25.9095 70.4741 22.4708C70.4741 21.0837 70.7522 19.7225 71.0286 18.3354L72.4157 12.2859H69.1129L69.8081 9.02989Z" fill="#056DE0"/>
<path d="M68.3094 15.3834C68.3094 10.8325 65.4236 8.63867 61.0101 8.63867C55.2386 8.63867 50.9642 13.9947 50.9642 19.5189C50.9642 24.7358 54.4077 27.2336 59.484 27.2336C61.3998 27.2336 63.3414 26.8165 65.1181 26.2636L65.6726 22.5453C63.8943 23.3779 62.0917 23.7949 60.1759 23.7949C57.2902 23.7949 55.4876 22.6843 55.2079 19.9376V19.2424C55.2079 17.9927 55.486 16.7721 55.9031 15.6615C56.7357 13.4693 58.0953 11.8041 60.7321 11.8041C62.6478 11.8041 63.6178 12.9148 63.6178 14.8273C63.6178 15.2444 63.6178 15.6599 63.4788 16.077H57.1512C56.7341 17.4641 56.7341 18.4082 56.5966 19.2408H67.4768C68.172 17.9911 68.3094 16.743 68.3094 15.3834Z" fill="#056DE0"/>
<path d="M83.9895 10.9715L84.4066 9.05573H88.681L88.2639 11.387C89.5136 9.60866 91.5668 8.63864 93.7606 8.63864C95.8138 8.63864 98.0351 9.88833 98.3115 12.0821H98.4667C99.7164 9.75092 102.185 8.63864 104.655 8.63864C107.265 8.63864 109.623 10.8308 109.623 13.4676C109.623 15.1328 109.206 16.9111 108.791 18.2966L106.875 26.8165H102.187L104.102 18.1576C104.38 17.0469 104.657 15.4093 104.657 14.3002C104.657 12.9131 103.687 12.108 102.465 12.108C99.3009 12.108 98.4683 15.8263 97.9138 18.2966L96.1355 26.6774H91.4472L93.3629 18.0185C93.641 16.9079 93.9174 15.2702 93.9174 14.1612C93.9174 12.7741 92.9474 11.969 91.7252 11.969C88.5614 11.969 87.7288 15.6873 87.1743 18.1576L85.396 26.5384H80.7076L83.9895 10.9715ZM140.549 12.6076C139.994 12.3295 138.77 11.9124 137.525 11.9124C136.138 11.9124 134.362 12.3295 134.362 13.6907C134.362 15.8829 140.411 16.7139 140.411 21.1274C140.411 25.8157 136.415 27.177 132.418 27.177C130.503 27.177 128.7 26.8989 127.062 26.0663L128.032 22.348C129.419 23.0432 130.642 23.7351 132.446 23.7351C133.972 23.7351 135.61 23.1806 135.61 21.8193C135.61 18.9336 129.56 18.6555 129.56 14.242C129.56 10.1066 133.556 8.60795 137.275 8.60795C138.94 8.60795 140.718 8.886 141.549 9.16245L140.549 12.6076ZM143.438 9.02825H146.74L147.573 5.30994L152.541 3.64478L151.43 8.86174H155.566L154.871 12.3052H150.732L149.067 20.02C148.928 20.4371 148.928 21.1306 148.928 21.7983C148.928 22.909 149.623 23.5767 150.706 23.5767C151.539 23.5767 152.371 23.4376 152.898 23.1595L152.066 26.7405C151.233 26.8795 150.401 27.1576 149.595 27.1576C146.432 27.1576 144.239 25.9079 144.239 22.4692C144.239 21.0821 144.517 19.7209 144.794 18.3338L146.181 12.2842H142.877L143.438 9.02825ZM174.688 11.3886L175.105 9.05736H179.518L178.823 12.3602H178.962C179.795 10.4445 182.126 8.6419 184.179 8.6419C184.734 8.6419 185.429 8.64189 185.957 8.78093L184.987 13.3318C184.433 13.1928 183.738 13.0538 183.209 13.0538C179.906 13.0538 178.38 15.9395 177.712 18.8252L176.047 26.818H171.496L174.688 11.3886Z" fill="#056DE0"/>
<path d="M171.524 15.3834C171.524 10.8325 168.638 8.63867 164.225 8.63867C158.453 8.63867 154.179 13.9947 154.179 19.5189C154.179 24.7358 157.622 27.2336 162.698 27.2336C164.614 27.2336 166.556 26.8165 168.333 26.2636L168.887 22.5453C167.109 23.3779 165.306 23.7949 163.39 23.7949C160.505 23.7949 158.702 22.6843 158.422 19.9376V19.2424C158.422 17.9927 158.7 16.7721 159.118 15.6615C159.95 13.4693 161.31 11.8041 163.947 11.8041C165.862 11.8041 166.832 12.9148 166.832 14.8273C166.832 15.2444 166.832 15.6599 166.693 16.077H160.366C159.949 17.4641 159.949 18.4082 159.811 19.2408H170.691C171.386 17.9911 171.524 16.743 171.524 15.3834Z" fill="#056DE0"/>
</svg>
