<svg width="62" height="41" viewBox="0 0 62 41" fill="none" xmlns="http://www.w3.org/2000/svg">
<mask id="mask0_55_92" style="mask-type:luminance" maskUnits="userSpaceOnUse" x="7" y="12" width="48" height="17">
<path d="M31.8196 17.7455C31.7924 19.8735 33.7315 21.0611 35.1923 21.7671C36.6931 22.4916 37.1972 22.9561 37.1915 23.6039C37.1801 24.5955 35.9943 25.033 34.8844 25.05C32.9481 25.0799 31.8225 24.5315 30.9274 24.1167L30.23 27.3542C31.1279 27.7647 32.7906 28.1227 34.5149 28.1384C38.562 28.1384 41.21 26.1567 41.2243 23.084C41.2401 19.1845 35.7866 18.9686 35.8238 17.2256C35.8367 16.6971 36.3451 16.1331 37.4593 15.9897C38.0107 15.9172 39.533 15.8618 41.2587 16.6502L41.9361 13.5179C41.0081 13.1826 39.8152 12.8616 38.33 12.8616C34.5206 12.8616 31.8411 14.8703 31.8196 17.7455ZM48.4451 13.1315C47.7061 13.1315 47.0831 13.5591 46.8053 14.2154L41.0239 27.9082H45.0682L45.873 25.7021H50.8152L51.2821 27.9082H54.8466L51.7361 13.1315H48.4451ZM49.0108 17.1233L50.1779 22.672H46.9815L49.0108 17.1233ZM26.9161 13.1315L23.7282 27.9082H27.582L30.7685 13.1315H26.9161ZM21.2148 13.1315L17.2035 23.1891L15.5809 14.6373C15.3904 13.6827 14.6385 13.1315 13.8036 13.1315H7.24596L7.1543 13.5605C8.50049 13.8503 10.03 14.3177 10.9566 14.8177C11.5237 15.1231 11.6855 15.3902 11.8717 16.1161L14.945 27.9082H19.0179L25.262 13.1315H21.2148Z" fill="white"/>
</mask>
<g mask="url(#mask0_55_92)">
<path d="M2.16016 14.686L49.1512 -2.48009L59.8415 26.3143L12.8509 43.4805" fill="url(#paint0_linear_55_92)"/>
</g>
<defs>
<linearGradient id="paint0_linear_55_92" x1="11.4746" y1="27.674" x2="51.5908" y2="12.7797" gradientUnits="userSpaceOnUse">
<stop stop-color="#222357"/>
<stop offset="1" stop-color="#254AA5"/>
</linearGradient>
</defs>
</svg>
